<svg xmlns="http://www.w3.org/2000/svg" width="865" height="270" viewBox="0 0 865 270" version="1.1"><g id="Logo-BT" stroke="none" stroke-width="1" fill="none" fill-rule="evenodd"><g id="Logo" transform="translate(2.000000, 2.000000)"><g id="Group"><g transform="translate(0.000000, 49.000000)" id="Shape" fill="#009DCC"><path d="M52.6 43.22C46.15 35.8 36.87 33.86 29.23 33.86 22.2 33.86 14.45 36.95 11.99 39.62L11.99 5.98C11.99 2.84 9.44 0.29 6.3 0.29 3.16 0.29 0.61 2.84 0.61 5.98L0.6 97.82C0.6 100.53 2.29 102.84 4.67 103.77 14.02 107.64 24.46 108.2 29.23 108.2 36.64 108.2 46.15 106.3 52.6 98.89 59.03 91.49 59.96 81.14 59.96 71.05 59.96 60.96 59.03 50.61 52.6 43.22L52.6 43.22ZM44.28 91.35C40.64 95.91 34.98 97.52 29.23 97.52 24.74 97.52 18.62 96.56 13.53 94.76L13.54 94.76C12.72 94.49 12.14 93.73 12.14 92.83L12.14 57.1C12.14 53.06 13.84 50.33 15.75 48.54 18.11 46.33 23.36 44.59 29.23 44.59 35.1 44.59 40.64 46.2 44.28 50.76 47.95 55.35 48.39 62.86 48.39 71.05 48.39 79.24 47.95 86.76 44.28 91.35L44.28 91.35Z"/><path d="M121.84 43.35C115.39 35.83 106.09 33.87 98.47 33.86 90.85 33.85 81.55 35.83 75.1 43.35 68.67 50.84 67.74 60.72 67.74 70.36 67.74 80.01 68.67 91.22 75.1 98.72 81.55 106.23 90.85 108.22 98.47 108.21 106.08 108.2 115.39 106.23 121.84 98.72 128.27 91.22 129.2 80.59 129.2 70.36 129.2 60.14 128.27 50.84 121.84 43.35L121.84 43.35ZM113.52 91.08C109.88 95.7 104.34 97.5 98.47 97.5 92.6 97.5 87.06 95.7 83.42 91.08 79.74 86.42 79.31 78.67 79.31 70.36 79.31 62.05 79.74 55.64 83.42 50.99 87.06 46.37 92.6 44.58 98.47 44.58 104.34 44.58 109.88 46.37 113.52 50.99 117.19 55.64 117.63 62.06 117.63 70.36 117.63 78.67 117.19 86.42 113.52 91.08L113.52 91.08Z"/><path d="M192.77 41.15C192.77 38.05 190.26 35.53 187.16 35.53 184.06 35.53 181.55 38.05 181.55 41.15L181.54 93.87C181.54 94.83 180.84 95.7 180.12 96 179.4 96.29 176.29 97.51 165.69 97.51 160.38 97.51 154.75 95.39 151.3 90.83 147.83 86.24 147.41 78.23 147.41 70.04L147.41 41.15C147.41 38.05 144.9 35.53 141.8 35.53 138.7 35.53 136.19 38.05 136.19 41.15L136.18 70.02C136.18 80.11 136.82 90.95 143.38 98.88 149.1 105.81 158.69 108.24 165.69 108.24 170.14 108.24 179.86 108.55 188.62 105.29 191.03 104.48 192.76 101.35 192.76 98.67L192.77 41.15 192.77 41.15Z"/><path d="M232.57 88.93C232.26 89.6 231.59 90.02 230.87 90.02 229.99 90.01 229.35 89.09 229.12 88.75 227.33 86.2 213.39 47.55 210.37 39.15 209.31 36.31 206.11 34.83 203.27 35.88 200.43 36.93 198.95 40.12 199.99 42.96L218.11 91.03C220.24 96.71 223.3 99.93 227.79 101.55L216.78 130.73C215.69 133.6 217.13 136.82 220.01 137.91 222.89 139 226.1 137.55 227.19 134.68L261.9 43C262.95 40.17 261.51 36.98 258.7 35.9 255.87 34.82 252.64 36.26 251.55 39.11L232.57 88.93 232.57 88.93Z"/><path d="M322.1 44.08C322.1 41.63 320.65 39.52 318.56 38.55 309.08 34.48 298.33 33.88 293.47 33.88 286.06 33.88 276.54 35.81 270.1 43.22 263.67 50.61 262.74 61.92 262.74 72.01 262.74 82.1 263.67 91.4 270.1 98.8 276.54 106.21 285.83 108.21 293.47 108.21 300.5 108.21 308.25 105.06 310.71 102.4L310.71 112.04C310.71 117.21 309.47 121.3 306.98 124.17 304.52 127.01 301.03 128.45 296.6 128.45 293.68 128.45 290.66 128.07 287.61 127.32 284.59 126.57 279.45 124.13 277.64 123.25 275.82 122.38 272.45 123.05 270.92 125.51 269.39 127.97 270.41 131.65 272.81 132.97 275.22 134.29 278.28 136.1 284.69 137.76 288.78 138.81 292.79 139.31 296.6 139.31 300.79 139.31 304.52 138.63 307.71 137.22 310.89 135.82 313.58 133.88 315.69 131.46 317.79 129.05 319.41 126.12 320.49 122.76 321.56 119.42 322.1 115.81 322.1 112.04L322.1 44.08 322.1 44.08ZM310.56 84.92C310.56 88.96 308.85 91.68 306.95 93.48 304.59 95.69 299.34 97.5 293.47 97.5 287.6 97.5 282.06 95.82 278.42 91.26 274.74 86.66 274.31 80.2 274.31 72.01 274.31 63.82 274.74 55.35 278.42 50.76 282.06 46.2 287.72 44.57 293.47 44.57 297.93 44.57 304 45.54 309.06 47.32 309.93 47.62 310.56 48.45 310.56 49.43L310.56 84.92 310.56 84.92Z"/><path d="M387.39 41.15C387.39 38.05 384.88 35.53 381.78 35.53 378.69 35.53 376.17 38.05 376.17 41.15L376.16 93.87C376.16 94.83 375.47 95.7 374.74 96 374.02 96.29 370.91 97.51 360.32 97.51 355 97.51 349.37 95.39 345.93 90.83 342.45 86.24 342.03 78.23 342.03 70.04L342.03 41.15C342.03 38.05 339.52 35.53 336.42 35.53 333.32 35.53 330.81 38.05 330.81 41.15L330.81 70.02C330.81 80.11 331.44 90.95 338 98.88 343.73 105.81 353.31 108.24 360.32 108.24 364.76 108.24 374.49 108.55 383.25 105.29 385.66 104.48 387.38 101.35 387.38 98.67L387.39 41.15 387.39 41.15Z"/><path d="M450.33 43.22C442.26 33.76 429.3 33.85 426.64 33.86 424.19 33.87 411.36 33.94 403.6 43.22 400.08 47.43 398.69 52.03 397.72 56.1 396.51 61.21 396.35 65.93 396.35 70.99 396.35 80.5 397.16 91.45 403.6 98.84 410.04 106.26 419.35 108.2 426.97 108.2 435.38 108.2 444.54 107.51 451.27 102.86 452.59 102.05 453.49 100.72 453.94 99.45 454.16 98.87 454.28 98.25 454.28 97.59 454.28 94.7 451.94 92.36 449.05 92.36 448.37 92.36 447.74 92.51 447.14 92.72 446.8 92.84 446.37 93.1 445.43 93.6 440.45 96.38 435.7 97.67 426.97 97.47 421.1 97.47 415.56 95.86 411.92 91.31 408.51 87.05 408 80.29 407.93 72.8L451.78 72.8C455.06 72.8 457.72 70.14 457.72 66.86 457.72 50.86 450.33 43.22 450.33 43.22L450.33 43.22ZM408.21 62.59C408.19 61.39 408.04 53.03 414.88 47.92 419.06 44.79 423.63 44.59 426.42 44.59 429.21 44.59 434.48 44.48 439.11 47.99 445.96 53.19 446.02 61.43 446 62.59L408.21 62.59 408.21 62.59Z"/><path d="M502.77 48.86C503.17 48.96 503.59 49.01 504.02 49.01 506.8 49.01 509.06 46.75 509.06 43.95 509.07 43.89 509.06 43.83 509.06 43.77 509.06 42.14 508.03 39.74 506.05 38.51 501.17 35.12 493.72 33.85 487.23 33.85 480.73 33.85 473.86 35.5 469.59 38.73 465.28 42.01 463.09 46.64 463.09 52.48 463.09 63.18 471 70.95 486.61 74.18 493.5 75.62 501.02 79.17 501.02 85.31 501.02 88.41 499.54 91.78 497.03 93.6 493.01 96.52 487.2 97.1 484.34 97.12 480.57 97.15 474.66 96.33 469.68 93.54 469.46 93.39 469.23 93.26 468.99 93.13 468.22 92.71 467.34 92.47 466.4 92.47 463.41 92.47 460.99 94.9 460.99 97.9 460.99 99.17 461.43 100.34 462.16 101.27 462.61 101.87 463.17 102.42 463.83 102.84 470.57 107.5 480.17 108.2 484.53 108.2 488.65 108.2 492.65 107.35 497.06 105.98 500.23 105 502.98 103.57 505.24 101.71 507.49 99.86 509.29 97.59 510.56 94.97 511.84 92.34 512.75 88.44 512.75 85.31 512.75 70.96 500.01 65.28 488.89 63.11 479.44 61.15 474.65 57.1 474.65 52.48 474.65 51.14 474.98 49.97 475.64 49 476.32 48.01 477.18 47.22 478.22 46.65 479.29 46.06 480.54 45.63 481.94 45.35 483.37 45.08 484.96 44.93 487.23 44.94 490.43 44.95 497.24 46.4 500.18 47.85 501 48.26 501.88 48.64 502.77 48.86L502.77 48.86Z"/></g><g transform="translate(540.000000, 0.000000)"><path d="M189.36 261.52C212.14 277.25 257.2 251.55 290 204.04 322.81 156.53 330.94 105.32 308.17 89.6 285.39 73.87 241.46 98.25 208.66 145.77 175.85 193.28 166.59 245.79 189.36 261.52L189.36 261.52Z" id="Shape" fill="#EA5B0F"/><path d="M132.56 261.52C109.78 277.25 64.72 251.55 31.92 204.04 -0.89 156.53-9.02 105.32 13.75 89.6 36.53 73.87 80.46 98.25 113.26 145.77 146.07 193.28 155.33 245.79 132.56 261.52L132.56 261.52Z" id="Shape" fill="#0055A4"/><ellipse id="Oval" fill="#009DCC" cx="160.94" cy="50.11" rx="104.64" ry="50.04"/></g><g transform="translate(330.000000, 169.000000)" id="Shape" fill="#009DCC"><path d="M8.27 18.27L6.93 18.27C6.44 18.27 6.05 17.92 6.05 17.48L6.05 3.96 1.69 3.96C1.2 3.96 0.81 3.6 0.81 3.17L0.81 1.9C0.81 1.47 1.2 1.12 1.69 1.12L13.54 1.12C14.02 1.12 14.42 1.47 14.42 1.9L14.42 3.17C14.42 3.6 14.02 3.96 13.54 3.96L9.15 3.96 9.15 17.48C9.15 17.92 8.76 18.27 8.27 18.27L8.27 18.27Z"/><path d="M39.88 18.27L29.2 18.27C28.72 18.27 28.32 17.92 28.32 17.48L28.32 1.9C28.32 1.47 28.72 1.12 29.2 1.12L39.88 1.12C40.37 1.12 40.77 1.47 40.77 1.9L40.77 3.17C40.77 3.6 40.37 3.96 39.88 3.96L31.43 3.96 31.43 8.23 38.49 8.23C38.99 8.23 39.38 8.59 39.38 9.01L39.38 10.21C39.38 10.64 38.99 10.99 38.49 10.99L31.43 10.99 31.43 15.43 39.88 15.43C40.37 15.43 40.77 15.78 40.77 16.22L40.77 17.47C40.77 17.92 40.37 18.27 39.88 18.27L39.88 18.27Z"/><path d="M67.63 18.27L56.95 18.27C56.46 18.27 56.07 17.92 56.07 17.48L56.07 1.9C56.07 1.47 56.46 1.12 56.95 1.12L58.28 1.12C58.78 1.12 59.18 1.47 59.18 1.9L59.18 15.43 67.63 15.43C68.12 15.43 68.52 15.78 68.52 16.22L68.52 17.47C68.52 17.92 68.12 18.27 67.63 18.27L67.63 18.27Z"/><path d="M93.05 18.27L82.38 18.27C81.89 18.27 81.49 17.92 81.49 17.48L81.49 1.9C81.49 1.47 81.89 1.12 82.38 1.12L93.05 1.12C93.55 1.12 93.94 1.47 93.94 1.9L93.94 3.17C93.94 3.6 93.55 3.96 93.05 3.96L84.6 3.96 84.6 8.23 91.67 8.23C92.16 8.23 92.55 8.59 92.55 9.01L92.55 10.21C92.55 10.64 92.16 10.99 91.67 10.99L84.6 10.99 84.6 15.43 93.05 15.43C93.55 15.43 93.94 15.78 93.94 16.22L93.94 17.47C93.94 17.92 93.55 18.27 93.05 18.27L93.05 18.27Z"/><path d="M121.24 13.07L119.86 12.86C119.45 12.79 119.04 13 118.89 13.35 118.66 14.06 118.32 14.5 117.83 14.92 117.11 15.56 116.13 15.92 115.07 15.92 114.01 15.92 113.03 15.56 112.31 14.92 111.3 14.04 110.89 13.08 110.89 9.71 110.89 6.34 111.3 5.36 112.31 4.47 113.03 3.83 114.01 3.47 115.07 3.47 116.13 3.47 117.11 3.83 117.83 4.47 118.31 4.89 118.66 5.33 118.89 6.05 119.04 6.4 119.45 6.6 119.86 6.54L121.24 6.32C121.51 6.28 121.73 6.13 121.87 5.93 122.02 5.73 122.04 5.46 121.95 5.24 121.63 4.26 121.09 3.45 120.19 2.67 118.84 1.46 116.96 0.86 115.07 0.86 113.19 0.86 111.31 1.46 109.95 2.67 108.02 4.38 107.73 6.15 107.73 9.68 107.73 13.21 108.02 15.02 109.95 16.72 111.31 17.93 113.19 18.53 115.07 18.53 116.96 18.53 118.84 17.92 120.19 16.72 121.09 15.94 121.63 15.14 121.95 14.15 122.04 13.93 122.02 13.67 121.87 13.46 121.73 13.26 121.51 13.12 121.24 13.07L121.24 13.07Z"/><path d="M147.55 2.65C146.2 1.45 144.31 0.85 142.43 0.85 140.55 0.85 138.66 1.45 137.31 2.65 135.37 4.36 135.08 6.14 135.08 9.67 135.08 13.21 135.37 14.97 137.31 16.68 138.67 17.89 140.49 18.54 142.43 18.54 144.38 18.54 146.19 17.89 147.55 16.68 149.49 14.97 149.77 13.21 149.77 9.67 149.77 6.14 149.49 4.36 147.55 2.65L147.55 2.65ZM145.19 14.88C144.47 15.52 143.45 15.84 142.43 15.84 141.41 15.84 140.39 15.52 139.67 14.88 138.66 13.99 138.25 13.04 138.25 9.67 138.25 6.3 138.66 5.35 139.67 4.46 140.39 3.82 141.37 3.46 142.43 3.46 143.49 3.46 144.47 3.82 145.19 4.46 146.2 5.35 146.61 6.3 146.61 9.67 146.61 13.04 146.2 13.98 145.19 14.88L145.19 14.88Z"/><path d="M178.19 18.27L176.86 18.27C176.37 18.27 175.96 17.92 175.96 17.48L175.96 9.06 172.33 17.77C172.19 18.05 171.86 18.24 171.51 18.24L170.18 18.24C169.83 18.24 169.52 18.06 169.37 17.77L165.63 8.99 165.63 17.48C165.63 17.92 165.23 18.27 164.75 18.27L163.41 18.27C162.92 18.27 162.53 17.92 162.53 17.48L162.53 1.9C162.53 1.47 162.92 1.12 163.41 1.12L164.75 1.12C165.09 1.12 165.4 1.3 165.55 1.58L170.86 14.15 176.05 1.59C176.18 1.3 176.5 1.12 176.86 1.12L178.19 1.12C178.68 1.12 179.08 1.47 179.08 1.9L179.08 17.48C179.08 17.92 178.68 18.27 178.19 18.27L178.19 18.27Z"/></g></g></g></g></svg>

